<?xml version="1.0" standalone="no"?>
<!DOCTYPE svg PUBLIC "-//W3C//DTD SVG 20010904//EN"
 "http://www.w3.org/TR/2001/REC-SVG-20010904/DTD/svg10.dtd">
<svg version="1.0" xmlns="http://www.w3.org/2000/svg"
 width="302.000000pt" height="302.000000pt" viewBox="0 0 302.000000 302.000000"
 preserveAspectRatio="xMidYMid meet">
<metadata>
Created by potrace 1.14, written by Peter Selinger 2001-2017
</metadata>
<g transform="translate(0.000000,302.000000) scale(0.100000,-0.100000)"
fill="#000000" stroke="none">
<path d="M301 2829 c-44 -17 -81 -50 -107 -95 -15 -25 -24 -48 -20 -51 3 -4
41 -1 84 5 42 6 244 37 447 68 407 62 450 63 514 21 64 -43 77 -80 116 -339
20 -128 37 -242 40 -254 4 -17 -2 -23 -34 -32 -60 -19 -74 -15 -121 33 -24 25
-50 45 -56 45 -8 0 -15 -25 -20 -71 l-7 -70 -46 -24 c-94 -48 -94 -49 -19 -86
l67 -33 11 -68 c7 -37 16 -68 22 -68 5 0 30 22 56 50 l47 50 67 -14 c37 -7 69
-11 71 -9 3 2 9 -24 14 -57 l10 -60 -36 6 c-20 4 -70 15 -111 25 -98 23 -107
16 -74 -59 76 -170 97 -223 92 -228 -10 -10 -921 -144 -979 -144 -44 0 -64 6
-102 30 -26 16 -49 39 -52 52 -3 13 -6 84 -8 158 -2 74 -3 -182 -2 -570 l0
-705 22 -41 c12 -23 35 -53 51 -66 29 -25 90 -54 96 -47 2 2 -28 213 -67 469
-77 510 -77 514 -22 586 46 60 80 69 545 138 239 36 450 68 468 71 l34 6 -37
-67 c-20 -36 -50 -89 -67 -116 -20 -32 -27 -53 -21 -59 7 -7 65 -4 168 7 157
18 158 18 174 -3 12 -14 34 -137 79 -439 34 -230 62 -432 62 -447 0 -36 -25
-96 -52 -124 l-21 -23 547 0 c522 0 549 1 585 19 42 22 95 78 106 111 4 12 5
23 3 25 -1 2 -206 -28 -455 -65 -313 -48 -461 -66 -485 -61 -95 22 -150 84
-168 189 -6 37 -32 211 -59 386 l-48 320 52 -59 c33 -36 57 -56 66 -53 10 4
26 60 47 164 18 86 33 158 35 159 1 1 67 29 147 62 82 35 146 67 148 76 2 8
-15 25 -38 39 l-41 24 28 26 c26 24 49 29 335 72 330 50 344 50 416 6 l32 -20
0 528 c0 337 -4 541 -11 565 -20 73 -110 147 -179 147 -26 0 -30 -3 -25 -22
10 -44 135 -893 135 -918 0 -31 -32 -84 -62 -104 -24 -15 -487 -91 -497 -81
-3 3 10 35 27 71 18 36 30 69 27 73 -2 5 -37 2 -76 -6 l-71 -15 -54 53 c-59
59 -60 58 -72 -36 l-7 -59 -62 -36 c-35 -19 -63 -40 -63 -47 0 -6 16 -17 35
-23 44 -14 38 -27 -15 -32 -37 -3 -40 -2 -41 22 0 14 -6 81 -12 150 -15 160
-19 161 -141 49 -78 -72 -91 -80 -97 -63 -10 26 -129 831 -129 873 0 42 31 94
67 110 16 7 62 19 103 26 65 11 -18 13 -605 13 -404 1 -690 -3 -704 -9z m1019
-703 c33 6 60 6 60 2 0 -5 -11 -31 -25 -57 l-24 -49 31 -57 30 -57 -48 7 c-27
4 -56 9 -65 11 -10 3 -30 -12 -53 -41 -21 -25 -41 -45 -46 -45 -4 0 -11 27
-15 60 l-7 61 -61 27 -61 28 57 29 c56 30 67 45 67 97 0 59 10 62 56 17 l44
-43 60 10z m84 -148 l6 -53 -26 49 c-23 43 -24 51 -13 79 l13 31 7 -27 c4 -14
10 -50 13 -79z m728 -154 c24 4 53 10 66 13 l24 6 -31 -60 -30 -60 30 -52 c17
-29 29 -55 27 -57 -2 -2 -31 1 -64 6 l-59 10 -38 -45 c-21 -25 -42 -43 -47
-40 -4 3 -11 30 -15 61 l-7 56 -54 25 c-30 13 -52 29 -48 34 3 5 28 21 55 34
45 24 49 28 49 63 0 20 3 47 6 60 7 23 8 22 50 -19 40 -40 45 -41 86 -35z
m-368 -51 c11 -180 1 -162 137 -240 65 -37 119 -71 119 -74 0 -3 -57 -30 -126
-59 -89 -38 -128 -60 -133 -74 -5 -12 -18 -74 -31 -138 -12 -65 -26 -118 -30
-118 -4 0 -45 45 -91 99 -46 55 -89 102 -95 104 -6 3 -70 -2 -143 -10 -73 -8
-134 -13 -137 -10 -3 2 27 57 66 121 38 64 70 121 70 125 0 4 -25 63 -56 131
-30 67 -53 124 -51 126 3 3 66 -9 141 -26 l136 -32 103 95 c56 52 105 93 108
91 3 -2 9 -52 13 -111z"/>
<path d="M2186 2545 c-54 -75 -102 -137 -105 -140 -4 -2 -51 30 -106 72 -55
41 -119 88 -141 104 l-42 29 -41 -55 c-23 -30 -41 -57 -41 -60 0 -3 62 -51
138 -106 75 -56 139 -103 141 -105 3 -2 -120 -174 -200 -280 -12 -14 101 -97
115 -85 6 5 54 68 106 140 52 72 98 131 101 131 3 0 66 -45 139 -100 73 -55
138 -100 144 -100 11 1 91 109 84 114 -1 2 -65 49 -141 105 -92 68 -135 106
-130 114 4 6 49 69 100 138 51 70 93 131 93 136 0 10 -95 83 -107 83 -5 0 -53
-61 -107 -135z"/>
<path d="M162 2630 c0 -14 2 -19 5 -12 2 6 2 18 0 25 -3 6 -5 1 -5 -13z"/>
<path d="M632 2433 c-30 -4 -33 -7 -28 -31 16 -84 37 -243 32 -250 -3 -5 -64
-17 -137 -27 l-131 -18 7 -66 c4 -36 8 -68 10 -69 2 -2 63 5 137 17 73 11 135
17 139 13 3 -4 14 -63 24 -132 9 -69 20 -128 24 -131 8 -9 131 11 131 21 0 4
-9 65 -20 136 -11 70 -18 130 -15 132 2 2 65 13 139 25 113 17 135 23 132 36
-3 9 -8 40 -11 69 -7 51 -8 53 -34 48 -79 -16 -243 -37 -248 -33 -4 5 -43 236
-43 260 0 7 -48 7 -108 0z"/>
<path d="M2255 1205 c-187 -28 -340 -53 -339 -56 0 -2 4 -32 8 -66 4 -35 10
-63 14 -63 4 0 155 23 336 50 181 28 334 50 338 50 10 0 0 107 -11 126 -4 7
-114 -6 -346 -41z"/>
<path d="M900 788 c-179 -27 -326 -51 -326 -51 -4 -4 17 -121 22 -126 4 -4
611 84 662 96 20 5 22 10 17 42 -14 84 -17 91 -33 90 -9 -1 -163 -24 -342 -51z"/>
<path d="M2306 789 c-176 -27 -321 -51 -324 -53 -2 -3 -1 -32 3 -65 7 -58 8
-61 33 -61 40 0 650 95 657 102 4 3 3 33 -1 67 -6 54 -9 61 -28 60 -11 0 -165
-23 -340 -50z"/>
</g>
</svg>
